<svg width="167" height="219" viewBox="0 0 167 219" fill="none" xmlns="http://www.w3.org/2000/svg">
<rect x="0.333496" width="166.333" height="219" rx="12" fill="#D6F5FF"/>
<path fill-rule="evenodd" clip-rule="evenodd" d="M78.4999 93.6667C76.1987 93.6667 74.3332 95.5321 74.3332 97.8333C74.3332 100.135 76.1987 102 78.4999 102C80.8011 102 82.6665 100.135 82.6665 97.8333C82.6665 95.5321 80.8011 93.6667 78.4999 93.6667ZM72.6665 97.8333C72.6665 94.6117 75.2782 92 78.4999 92C81.7215 92 84.3332 94.6117 84.3332 97.8333C84.3332 101.055 81.7215 103.667 78.4999 103.667C75.2782 103.667 72.6665 101.055 72.6665 97.8333ZM91.1677 105.191C90.8637 104.718 90.1882 104.676 89.8275 105.107L81.282 115.324C81.1331 115.502 80.9169 115.61 80.6853 115.622C80.4536 115.634 80.2275 115.549 80.0613 115.387L74.3554 109.83C73.9819 109.466 73.3698 109.531 73.0806 109.965L65.9207 120.704C65.5515 121.258 65.9485 122 66.6141 122H100.447C101.106 122 101.505 121.271 101.148 120.716L91.1677 105.191ZM88.549 104.038C89.6311 102.744 91.6576 102.871 92.5697 104.29L102.55 119.815C103.62 121.479 102.425 123.667 100.447 123.667H66.6141C64.6173 123.667 63.4263 121.441 64.5339 119.78L71.6939 109.04C72.5615 107.739 74.3977 107.544 75.5182 108.636L80.5802 113.566L88.549 104.038Z" fill="#0093ED"/>
</svg>
